<svg width="11" height="11" viewBox="0 0 11 11" fill="none" xmlns="http://www.w3.org/2000/svg">
<path d="M8.16204 4.09647C7.99078 4.75125 7.59115 4.89548 7.37793 4.92441C7.24658 5.18701 6.95787 5.72367 6.66906 5.99331C6.55361 6.10105 6.40359 6.19199 6.22318 6.2636C5.99285 6.35499 5.74958 6.40134 5.50022 6.40134C5.25086 6.40134 5.00759 6.35499 4.77726 6.2636C4.59689 6.19204 4.44682 6.1011 4.33138 5.99331C4.04252 5.72372 3.7538 5.18701 3.62246 4.92441C3.40928 4.89548 3.00965 4.7513 2.8384 4.09647C2.74681 3.74631 2.77026 3.46087 2.90815 3.24805C2.96909 3.15399 3.04297 3.08993 3.11176 3.04655C3.11196 2.97665 3.11488 2.88914 3.12299 2.78959C2.99914 2.61748 2.83075 2.24614 3.0393 1.64506C3.25972 1.00961 3.75808 0.911479 3.99863 0.902974C4.07996 0.751799 4.2336 0.537165 4.5126 0.339842C4.8223 0.120678 5.2267 0 5.65129 0C6.17376 0 6.6995 0.183886 7.17165 0.53178C7.93714 1.09582 7.87156 2.34699 7.85279 2.57415C7.88057 2.76458 7.88827 2.92975 7.88862 3.0465C7.95742 3.08988 8.03129 3.15394 8.09224 3.248C8.23013 3.46087 8.25358 3.74626 8.16204 4.09647ZM10.4008 8.97237V10.7484C10.4008 10.8873 10.2881 11 10.1492 11H0.851232C0.712286 11 0.599609 10.8873 0.599609 10.7484V8.97237C0.599609 8.24478 1.03612 7.60002 1.71168 7.32978L3.91162 6.4498C3.97493 6.42454 4.04579 6.4259 4.10804 6.45388C4.17024 6.48176 4.2185 6.53374 4.24165 6.59786L4.79472 8.12687L4.90422 7.81204L4.73 7.38614C4.6983 7.30854 4.70725 7.22022 4.754 7.15062C4.80076 7.08102 4.87906 7.03925 4.9629 7.03925H6.03753C6.12137 7.03925 6.19973 7.08102 6.24643 7.15062C6.29318 7.22022 6.30214 7.30854 6.27044 7.38614L6.09621 7.81204L6.20572 8.12687L6.75879 6.59786C6.78194 6.53374 6.8302 6.48176 6.8924 6.45388C6.95465 6.42595 7.02556 6.42459 7.08881 6.4498L9.28875 7.32978C9.96431 7.60002 10.4008 8.24478 10.4008 8.97237ZM9.06134 9.16547C9.06134 9.02652 8.94866 8.91385 8.80971 8.91385H7.12032C6.98137 8.91385 6.86869 9.02652 6.86869 9.16547V9.95003C6.86869 10.089 6.98137 10.2017 7.12032 10.2017H8.80971C8.94866 10.2017 9.06134 10.089 9.06134 9.95003V9.16547Z" fill="#F01E3A"/>
</svg>
